<svg width="68" height="68" viewBox="0 0 68 68" fill="none" xmlns="http://www.w3.org/2000/svg">
<g filter="url(#filter0_d_0_55)">
<circle cx="34" cy="30" r="29.5" stroke="#DEE3EE"/>
<path d="M31 26H43" stroke="#D93A31" stroke-width="2" stroke-miterlimit="10" stroke-linecap="round" stroke-linejoin="round"/>
<path d="M24 20H25.74C26.82 20 27.67 20.93 27.58 22L26.75 31.96C26.61 33.59 27.9 34.99 29.54 34.99H40.19C41.63 34.99 42.89 33.81 43 32.38L43.54 24.88C43.66 23.22 42.4 21.87 40.73 21.87H27.82" stroke="#2B2B35" stroke-width="2" stroke-miterlimit="10" stroke-linecap="round" stroke-linejoin="round"/>
<path d="M38.25 40C38.9404 40 39.5 39.4404 39.5 38.75C39.5 38.0596 38.9404 37.5 38.25 37.5C37.5596 37.5 37 38.0596 37 38.75C37 39.4404 37.5596 40 38.25 40Z" stroke="#2B2B35" stroke-width="2" stroke-miterlimit="10" stroke-linecap="round" stroke-linejoin="round"/>
<path d="M30.25 40C30.9404 40 31.5 39.4404 31.5 38.75C31.5 38.0596 30.9404 37.5 30.25 37.5C29.5596 37.5 29 38.0596 29 38.75C29 39.4404 29.5596 40 30.25 40Z" stroke="#2B2B35" stroke-width="2" stroke-miterlimit="10" stroke-linecap="round" stroke-linejoin="round"/>
</g>
<defs>
<filter id="filter0_d_0_55" x="0" y="0" width="68" height="68" filterUnits="userSpaceOnUse" color-interpolation-filters="sRGB">
<feFlood flood-opacity="0" result="BackgroundImageFix"/>
<feColorMatrix in="SourceAlpha" type="matrix" values="0 0 0 0 0 0 0 0 0 0 0 0 0 0 0 0 0 0 127 0" result="hardAlpha"/>
<feOffset dy="4"/>
<feGaussianBlur stdDeviation="2"/>
<feComposite in2="hardAlpha" operator="out"/>
<feColorMatrix type="matrix" values="0 0 0 0 0 0 0 0 0 0 0 0 0 0 0 0 0 0 0.25 0"/>
<feBlend mode="normal" in2="BackgroundImageFix" result="effect1_dropShadow_0_55"/>
<feBlend mode="normal" in="SourceGraphic" in2="effect1_dropShadow_0_55" result="shape"/>
</filter>
</defs>
</svg>
